<svg xmlns="http://www.w3.org/2000/svg" 
width="768" 
height="768" 
viewBox="0 0 768 768"
fill="currentColor">
  <!-- Material Icons by @google - https://github.com/google/material-design-icons 
  License - Apache-2.0 License -->
  <title>settings</title>
  <path d="M384 496.5q46.5 0 79.5-33t33-79.5-33-79.5-79.5-33-79.5 33-33 79.5 33 79.5 79.5 33zM622.5 415.5l67.5 52.5q10.5 7.5 3 21l-64.5 111q-6 10.5-19.5 6l-79.5-31.5q-31.5 22.5-54 31.5l-12 84q-3 13.5-15 13.5h-129q-12 0-15-13.5l-12-84q-28.5-12-54-31.5l-79.5 31.5q-13.5 4.5-19.5-6l-64.5-111q-7.5-13.5 3-21l67.5-52.5q-1.5-10.5-1.5-31.5t1.5-31.5l-67.5-52.5q-10.5-7.5-3-21l64.5-111q6-10.5 19.5-6l79.5 31.5q31.5-22.5 54-31.5l12-84q3-13.5 15-13.5h129q12 0 15 13.5l12 84q28.5 12 54 31.5l79.5-31.5q13.5-4.5 19.5 6l64.5 111q7.5 13.5-3 21l-67.5 52.5q1.5 10.5 1.5 31.5t-1.5 31.5z"></path>
</svg>
